<svg id="Ebene_1" data-name="Ebene 1" xmlns="http://www.w3.org/2000/svg" xmlns:xlink="http://www.w3.org/1999/xlink" width="16.65" height="16" viewBox="0 0 16.65 16"><defs><clipPath id="clip-path" transform="translate(0.331)"><rect width="16" height="16" style="fill:none"/></clipPath></defs><title>icon_stadt</title><g style="clip-path:url(#clip-path)"><rect x="0.331" width="16" height="16" style="fill:#f7d746"/><polygon points="0.223 8.553 0.396 8.553 0.396 7.946 1.695 7.946 1.695 8.553 2.388 8.553 2.388 6.128 5.073 4.915 5.073 7.427 6.112 7.427 6.112 6.561 7.757 6.907 7.757 7.427 9.836 7.427 9.836 3.097 12.087 3.097 12.087 4.569 12.78 4.569 12.78 6.474 13.646 6.474 15.378 5.955 15.378 7.687 16.331 7.687 16.331 16 0.223 16 0.223 8.553" style="fill:#3e8bf3"/><path d="M16,13c-5.616-2.018-10.983-2.259-16,0v3H16Z" transform="translate(0.331)" style="fill:#21a800"/><path d="M0,13c5.017-2.259,10.384-2.018,16,0" transform="translate(0.331)" style="fill:none;stroke:#fff;stroke-linecap:square;stroke-miterlimit:10;stroke-width:0.5px"/></g></svg>