<svg id="Ebene_1" data-name="Ebene 1" xmlns="http://www.w3.org/2000/svg" xmlns:xlink="http://www.w3.org/1999/xlink" width="16.65" height="16" viewBox="0 0 16.65 16"><defs><clipPath id="clip-path" transform="translate(0.331)"><rect width="16" height="16" style="fill:none"/></clipPath></defs><title>icon_gewerbegebiet</title><g style="clip-path:url(#clip-path)"><rect x="0.331" width="16" height="16" style="fill:#f7d746"/><polyline points="2.331 8 2.331 8 2.331 1 4.331 1 4.331 8 7.331 6 7.331 8 7.331 8 10.331 6 10.331 8 10.331 8 13.331 6 13.331 8 15.331 8 15.331 13.531 1.331 13.531 1.393 8.156" style="fill:#3e8bf3"/><path d="M16,13c-5.616-2.018-10.983-2.259-16,0v3H16Z" transform="translate(0.331)" style="fill:#21a800"/><path d="M0,13c5.017-2.259,10.384-2.018,16,0" transform="translate(0.331)" style="fill:none;stroke:#fff;stroke-linecap:square;stroke-miterlimit:10;stroke-width:0.5px"/></g></svg>