<svg id="Ebene_2" data-name="Ebene 2" xmlns="http://www.w3.org/2000/svg" width="16" height="15" viewBox="0 0 16 15"><title>icon_events</title><path d="M15.139,2.5H13.546V3.711a1.034,1.034,0,0,1-2.052,0V2.5H4.506V3.711a.971.971,0,0,1-1.026.9.971.971,0,0,1-1.026-.9V2.5H.861A.871.871,0,0,0,0,3.375V15.124A.871.871,0,0,0,.861,16H15.139A.871.871,0,0,0,16,15.124V3.375A.871.871,0,0,0,15.139,2.5ZM15,15.051H.933V5.564H15Z" transform="translate(0 -1)" style="fill:#0a5da9;opacity:0.5"/><path d="M3.832,1a.492.492,0,0,0-.523.453V3.545A.492.492,0,0,0,3.832,4a.492.492,0,0,0,.523-.453V1.453A.492.492,0,0,0,3.832,1Z" transform="translate(0 -1)" style="fill:#636363"/><path d="M12.618,1.07a.492.492,0,0,0-.523.453V3.615a.528.528,0,0,0,1.046,0V1.523A.492.492,0,0,0,12.618,1.07Z" transform="translate(0 -1)" style="fill:#636363"/><rect x="5.471" y="5.404" width="2.231" height="1.743" rx="0.454" ry="0.454" style="fill:#0a5da9;opacity:0.5"/><rect x="8.678" y="5.404" width="2.231" height="1.743" rx="0.454" ry="0.454" style="fill:#0a5da9;opacity:0.5"/><rect x="11.886" y="5.404" width="2.231" height="1.743" rx="0.454" ry="0.454" style="fill:#0a5da9;opacity:0.5"/><rect x="5.471" y="8.123" width="2.231" height="1.743" rx="0.454" ry="0.454" style="fill:#0a5da9;opacity:0.5"/><rect x="2.263" y="8.123" width="2.231" height="1.743" rx="0.454" ry="0.454" style="fill:#0a5da9;opacity:0.5"/><rect x="8.678" y="8.123" width="2.231" height="1.743" rx="0.454" ry="0.454" style="fill:#0a5da9;opacity:0.5"/><rect x="11.886" y="8.123" width="2.231" height="1.743" rx="0.454" ry="0.454" style="fill:#0a5da9;opacity:0.5"/><rect x="5.471" y="10.843" width="2.231" height="1.743" rx="0.454" ry="0.454" style="fill:#0a5da9;opacity:0.5"/><rect x="2.263" y="10.843" width="2.231" height="1.743" rx="0.454" ry="0.454" style="fill:#0a5da9;opacity:0.5"/><rect x="8.678" y="10.843" width="2.231" height="1.743" rx="0.454" ry="0.454" style="fill:#0a5da9;opacity:0.5"/></svg>